<svg width="512" height="512" viewBox="0 0 512 512" fill="none" xmlns="http://www.w3.org/2000/svg">
<path d="M501.291 131.968C495.403 109.803 478.059 92.3306 456.021 86.4C416.107 75.648 256 75.6479 256 75.6479C256 75.6479 95.8933 75.648 55.9573 86.4C33.9413 92.3306 16.5973 109.781 10.7093 131.968C0 172.16 0 256 0 256C0 256 0 339.84 10.7093 380.032C16.5973 402.197 33.9413 419.669 55.9787 425.6C95.8933 436.352 256 436.352 256 436.352C256 436.352 416.107 436.352 456.043 425.6C478.059 419.669 495.403 402.219 501.312 380.032C512 339.84 512 256 512 256C512 256 512 172.16 501.291 131.968ZM203.648 332.139V179.861L337.451 256L203.648 332.139Z" fill="white"/>
</svg>
